<svg width="125" height="25" viewBox="0 0 125 25" fill="none" xmlns="http://www.w3.org/2000/svg">
<g clip-path="url(#clip0_4864_12793)">
<path d="M88.6051 7.71171L82.0748 7.10604L79.4807 1.08245C79.2991 0.660669 78.7011 0.660669 78.5195 1.08245L75.9255 7.10599L69.3951 7.71171C68.9379 7.75409 68.7531 8.32284 69.0981 8.62592L74.0252 12.9543L72.5833 19.3523C72.4823 19.8003 72.9661 20.1517 73.361 19.9173L79.0001 16.5689L84.6393 19.9173C85.0342 20.1518 85.5179 19.8003 85.417 19.3523L83.975 12.9543L88.9022 8.62592C89.2472 8.32284 89.0624 7.75409 88.6051 7.71171Z" fill="#FFDC64"/>
<path d="M72.3241 0.875081C72.657 1.33748 73.5967 3.32333 74.1339 4.48065C74.2184 4.66259 73.9901 4.82694 73.8443 4.6891C72.9172 3.81254 71.332 2.29144 70.9991 1.82899C70.7357 1.46312 70.8187 0.952962 71.1847 0.689534C71.5505 0.426105 72.0607 0.509211 72.3241 0.875081Z" fill="#C5C5C5"/>
<path d="M85.6759 0.875081C85.343 1.33748 84.4033 3.32333 83.8661 4.48065C83.7817 4.66259 84.0099 4.82694 84.1557 4.6891C85.0828 3.81254 86.6679 2.29139 87.0009 1.82899C87.2643 1.46312 87.1813 0.952962 86.8154 0.689534C86.4495 0.426105 85.9393 0.509211 85.6759 0.875081Z" fill="#C5C5C5"/>
<path d="M90.9366 14.435C90.3949 14.2584 88.2174 13.9665 86.9516 13.8064C86.7526 13.7812 86.6654 14.0486 86.8409 14.1456C87.9578 14.7625 89.8886 15.8106 90.4303 15.9872C90.8589 16.127 91.3197 15.8929 91.4595 15.4642C91.5993 15.0356 91.3652 14.5748 90.9366 14.435Z" fill="#C5C5C5"/>
<path d="M67.0634 14.435C67.6051 14.2584 69.7826 13.9665 71.0484 13.8064C71.2474 13.7812 71.3346 14.0486 71.159 14.1456C70.0422 14.7625 68.1114 15.8106 67.5697 15.9872C67.141 16.127 66.6803 15.8929 66.5405 15.4642C66.4007 15.0356 66.6348 14.5748 67.0634 14.435Z" fill="#C5C5C5"/>
<path d="M78.2087 23.6478C78.2087 23.0781 78.6064 20.9174 78.8467 19.6643C78.8844 19.4674 79.1657 19.4674 79.2035 19.6643C79.4437 20.9174 79.8414 23.0781 79.8414 23.6478C79.8414 24.0987 79.4759 24.4641 79.0251 24.4641C78.5742 24.4642 78.2087 24.0987 78.2087 23.6478Z" fill="#C5C5C5"/>
<path d="M80.424 3.27288L79.4807 1.08245C79.2991 0.660669 78.7011 0.660669 78.5195 1.08245L75.9254 7.10599L69.3951 7.71171C68.9379 7.75409 68.7531 8.32284 69.0981 8.62592L74.0252 12.9543L72.5833 19.3523C72.4823 19.8003 72.9661 20.1517 73.361 19.9173L74.1115 19.4716C75.3419 11.5068 78.801 5.65999 80.424 3.27288Z" fill="#FFC850"/>
</g>
<g clip-path="url(#clip1_4864_12793)">
<path d="M22.6051 7.71171L16.0748 7.10604L13.4807 1.08245C13.2991 0.660669 12.7011 0.660669 12.5195 1.08245L9.92547 7.10599L3.39513 7.71171C2.93785 7.75409 2.75309 8.32284 3.09806 8.62592L8.02522 12.9543L6.58327 19.3523C6.48229 19.8003 6.96613 20.1517 7.36096 19.9173L13.0001 16.5689L18.6393 19.9173C19.0342 20.1518 19.5179 19.8003 19.417 19.3523L17.975 12.9543L22.9022 8.62592C23.2472 8.32284 23.0624 7.75409 22.6051 7.71171Z" fill="#FFDC64"/>
<path d="M6.32412 0.875081C6.65703 1.33748 7.59668 3.32333 8.13389 4.48065C8.21836 4.66259 7.99009 4.82694 7.84434 4.6891C6.91724 3.81254 5.33203 2.29144 4.99912 1.82899C4.73569 1.46312 4.81875 0.952962 5.18467 0.689534C5.55053 0.426105 6.06069 0.509211 6.32412 0.875081Z" fill="#C5C5C5"/>
<path d="M19.6759 0.875081C19.343 1.33748 18.4033 3.32333 17.8661 4.48065C17.7817 4.66259 18.0099 4.82694 18.1557 4.6891C19.0828 3.81254 20.6679 2.29139 21.0009 1.82899C21.2643 1.46312 21.1813 0.952962 20.8154 0.689534C20.4495 0.426105 19.9393 0.509211 19.6759 0.875081Z" fill="#C5C5C5"/>
<path d="M24.9366 14.435C24.3949 14.2584 22.2174 13.9665 20.9516 13.8064C20.7526 13.7812 20.6654 14.0486 20.8409 14.1456C21.9578 14.7625 23.8886 15.8106 24.4303 15.9872C24.8589 16.127 25.3197 15.8929 25.4595 15.4642C25.5993 15.0356 25.3652 14.5748 24.9366 14.435Z" fill="#C5C5C5"/>
<path d="M1.06341 14.435C1.60511 14.2584 3.7826 13.9665 5.04838 13.8064C5.24735 13.7812 5.33456 14.0486 5.15902 14.1456C4.04217 14.7625 2.11136 15.8106 1.56966 15.9872C1.14104 16.127 0.680252 15.8929 0.540456 15.4642C0.400661 15.0356 0.634793 14.5748 1.06341 14.435Z" fill="#C5C5C5"/>
<path d="M12.2087 23.6478C12.2087 23.0781 12.6064 20.9174 12.8467 19.6643C12.8844 19.4674 13.1657 19.4674 13.2035 19.6643C13.4437 20.9174 13.8414 23.0781 13.8414 23.6478C13.8414 24.0987 13.4759 24.4641 13.0251 24.4641C12.5742 24.4642 12.2087 24.0987 12.2087 23.6478Z" fill="#C5C5C5"/>
<path d="M14.424 3.27288L13.4807 1.08245C13.2991 0.660669 12.7011 0.660669 12.5195 1.08245L9.92542 7.10599L3.39513 7.71171C2.93785 7.75409 2.75309 8.32284 3.09806 8.62592L8.02522 12.9543L6.58327 19.3523C6.48229 19.8003 6.96613 20.1517 7.36096 19.9173L8.1115 19.4716C9.34192 11.5068 12.801 5.65999 14.424 3.27288Z" fill="#FFC850"/>
</g>
<g clip-path="url(#clip2_4864_12793)">
<path d="M121.605 7.71171L115.075 7.10604L112.481 1.08245C112.299 0.660669 111.701 0.660669 111.52 1.08245L108.925 7.10599L102.395 7.71171C101.938 7.75409 101.753 8.32284 102.098 8.62592L107.025 12.9543L105.583 19.3523C105.482 19.8003 105.966 20.1517 106.361 19.9173L112 16.5689L117.639 19.9173C118.034 20.1518 118.518 19.8003 118.417 19.3523L116.975 12.9543L121.902 8.62592C122.247 8.32284 122.062 7.75409 121.605 7.71171Z" fill="#FFDC64"/>
<path d="M105.324 0.875081C105.657 1.33748 106.597 3.32333 107.134 4.48065C107.218 4.66259 106.99 4.82694 106.844 4.6891C105.917 3.81254 104.332 2.29144 103.999 1.82899C103.736 1.46312 103.819 0.952962 104.185 0.689534C104.551 0.426105 105.061 0.509211 105.324 0.875081Z" fill="#C5C5C5"/>
<path d="M118.676 0.875081C118.343 1.33748 117.403 3.32333 116.866 4.48065C116.782 4.66259 117.01 4.82694 117.156 4.6891C118.083 3.81254 119.668 2.29139 120.001 1.82899C120.264 1.46312 120.181 0.952962 119.815 0.689534C119.449 0.426105 118.939 0.509211 118.676 0.875081Z" fill="#C5C5C5"/>
<path d="M123.937 14.435C123.395 14.2584 121.217 13.9665 119.952 13.8064C119.753 13.7812 119.665 14.0486 119.841 14.1456C120.958 14.7625 122.889 15.8106 123.43 15.9872C123.859 16.127 124.32 15.8929 124.46 15.4642C124.599 15.0356 124.365 14.5748 123.937 14.435Z" fill="#C5C5C5"/>
<path d="M100.063 14.435C100.605 14.2584 102.783 13.9665 104.048 13.8064C104.247 13.7812 104.335 14.0486 104.159 14.1456C103.042 14.7625 101.111 15.8106 100.57 15.9872C100.141 16.127 99.6803 15.8929 99.5405 15.4642C99.4007 15.0356 99.6348 14.5748 100.063 14.435Z" fill="#C5C5C5"/>
<path d="M111.209 23.6478C111.209 23.0781 111.606 20.9174 111.847 19.6643C111.884 19.4674 112.166 19.4674 112.203 19.6643C112.444 20.9174 112.841 23.0781 112.841 23.6478C112.841 24.0987 112.476 24.4641 112.025 24.4641C111.574 24.4642 111.209 24.0987 111.209 23.6478Z" fill="#C5C5C5"/>
<path d="M113.424 3.27288L112.481 1.08245C112.299 0.660669 111.701 0.660669 111.519 1.08245L108.925 7.10599L102.395 7.71171C101.938 7.75409 101.753 8.32284 102.098 8.62592L107.025 12.9543L105.583 19.3523C105.482 19.8003 105.966 20.1517 106.361 19.9173L107.111 19.4716C108.342 11.5068 111.801 5.65999 113.424 3.27288Z" fill="#FFC850"/>
</g>
<g clip-path="url(#clip3_4864_12793)">
<path d="M55.6051 7.71171L49.0748 7.10604L46.4807 1.08245C46.2991 0.660669 45.7011 0.660669 45.5195 1.08245L42.9255 7.10599L36.3951 7.71171C35.9379 7.75409 35.7531 8.32284 36.0981 8.62592L41.0252 12.9543L39.5833 19.3523C39.4823 19.8003 39.9661 20.1517 40.361 19.9173L46.0001 16.5689L51.6393 19.9173C52.0342 20.1518 52.5179 19.8003 52.417 19.3523L50.975 12.9543L55.9022 8.62592C56.2472 8.32284 56.0624 7.75409 55.6051 7.71171Z" fill="#FFDC64"/>
<path d="M39.3241 0.875081C39.657 1.33748 40.5967 3.32333 41.1339 4.48065C41.2184 4.66259 40.9901 4.82694 40.8443 4.6891C39.9172 3.81254 38.332 2.29144 37.9991 1.82899C37.7357 1.46312 37.8187 0.952962 38.1847 0.689534C38.5505 0.426105 39.0607 0.509211 39.3241 0.875081Z" fill="#C5C5C5"/>
<path d="M52.6759 0.875081C52.343 1.33748 51.4033 3.32333 50.8661 4.48065C50.7817 4.66259 51.0099 4.82694 51.1557 4.6891C52.0828 3.81254 53.6679 2.29139 54.0009 1.82899C54.2643 1.46312 54.1813 0.952962 53.8154 0.689534C53.4495 0.426105 52.9393 0.509211 52.6759 0.875081Z" fill="#C5C5C5"/>
<path d="M57.9366 14.435C57.3949 14.2584 55.2174 13.9665 53.9516 13.8064C53.7526 13.7812 53.6654 14.0486 53.8409 14.1456C54.9578 14.7625 56.8886 15.8106 57.4303 15.9872C57.8589 16.127 58.3197 15.8929 58.4595 15.4642C58.5993 15.0356 58.3652 14.5748 57.9366 14.435Z" fill="#C5C5C5"/>
<path d="M34.0634 14.435C34.6051 14.2584 36.7826 13.9665 38.0484 13.8064C38.2474 13.7812 38.3346 14.0486 38.159 14.1456C37.0422 14.7625 35.1114 15.8106 34.5697 15.9872C34.141 16.127 33.6803 15.8929 33.5405 15.4642C33.4007 15.0356 33.6348 14.5748 34.0634 14.435Z" fill="#C5C5C5"/>
<path d="M45.2087 23.6478C45.2087 23.0781 45.6064 20.9174 45.8467 19.6643C45.8844 19.4674 46.1657 19.4674 46.2035 19.6643C46.4437 20.9174 46.8414 23.0781 46.8414 23.6478C46.8414 24.0987 46.4759 24.4641 46.0251 24.4641C45.5742 24.4642 45.2087 24.0987 45.2087 23.6478Z" fill="#C5C5C5"/>
<path d="M47.424 3.27288L46.4807 1.08245C46.2991 0.660669 45.7011 0.660669 45.5195 1.08245L42.9254 7.10599L36.3951 7.71171C35.9379 7.75409 35.7531 8.32284 36.0981 8.62592L41.0252 12.9543L39.5833 19.3523C39.4823 19.8003 39.9661 20.1517 40.361 19.9173L41.1115 19.4716C42.3419 11.5068 45.801 5.65999 47.424 3.27288Z" fill="#FFC850"/>
</g>
<defs>
<clipPath id="clip0_4864_12793">
<rect width="25" height="25" fill="white" transform="translate(66.5)"/>
</clipPath>
<clipPath id="clip1_4864_12793">
<rect width="25" height="25" fill="white" transform="translate(0.5)"/>
</clipPath>
<clipPath id="clip2_4864_12793">
<rect width="25" height="25" fill="white" transform="translate(99.5)"/>
</clipPath>
<clipPath id="clip3_4864_12793">
<rect width="25" height="25" fill="white" transform="translate(33.5)"/>
</clipPath>
</defs>
</svg>
