<svg width="71" height="70" viewBox="0 0 71 70" fill="none" xmlns="http://www.w3.org/2000/svg">
<g opacity="0.15" clip-path="url(#clip0_4864_22773)">
<path d="M14.9187 29.3713C15.7727 24.003 22.4831 18.2687 27.7294 18.1467C28.0954 18.1467 28.4615 18.0247 28.7055 17.7806C28.9495 17.6586 29.1935 17.5366 29.3155 17.1706C31.1456 13.7544 30.1695 11.0703 27.1194 8.87414C23.5812 6.312 17.9689 8.87414 15.1627 11.1923C8.08632 17.0486 0.887919 27.175 1.25394 36.8137C0.033871 43.2803 0.277885 50.2344 2.10799 55.9688C3.32805 59.629 6.86625 61.4591 10.5265 61.7031C14.1867 61.9473 21.7511 63.0452 25.0453 60.8492C28.3394 58.6529 28.5835 54.3827 28.9495 50.7227C29.3155 46.6964 30.4136 39.1318 26.9974 35.9597C23.5812 32.9095 13.8206 36.2037 14.9187 29.3713Z" fill="white"/>
<path d="M54.6243 29.3713C55.4783 24.003 62.1885 18.2687 67.435 18.1467C67.801 18.1467 68.167 18.0247 68.4111 17.7806C68.6553 17.6586 68.8991 17.5366 69.0213 17.1706C70.8514 13.7544 69.8753 11.0703 66.8252 8.87414C63.287 6.312 57.6747 8.87414 54.8683 11.1923C47.7919 17.0486 40.5935 27.1752 40.9595 36.8137C39.7395 43.2803 39.9835 50.2344 41.8134 55.9688C43.0334 59.629 46.5716 61.4591 50.232 61.7031C53.8922 61.9473 61.4567 63.0452 64.7508 60.8492C68.0448 58.6529 68.289 54.3827 68.6551 50.7227C69.0211 46.6964 70.1191 39.1318 66.703 35.9597C63.2868 32.9095 53.4042 36.2037 54.6243 29.3713Z" fill="white"/>
</g>
<defs>
<clipPath id="clip0_4864_22773">
<rect width="70" height="70" fill="white" transform="translate(0.5)"/>
</clipPath>
</defs>
</svg>
